<?xml version="1.0" standalone="no"?><!DOCTYPE svg PUBLIC "-//W3C//DTD SVG 1.1//EN" "http://www.w3.org/Graphics/SVG/1.1/DTD/svg11.dtd"><svg t="1723977291727" class="icon" viewBox="0 0 1024 1024" version="1.1" xmlns="http://www.w3.org/2000/svg" p-id="2459" xmlns:xlink="http://www.w3.org/1999/xlink" width="22" height="22"><path d="M512.353494 511.99333m-170.771158 0a170.771159 170.771159 0 1 0 341.542317 0 170.771159 170.771159 0 1 0-341.542317 0Z" fill="#333333" p-id="2460"></path><path d="M40.018237 341.502299a40.018237 40.018237 0 0 0 40.018238-40.018237v-221.434248h221.434247a40.018237 40.018237 0 0 0 40.018238-40.018237 40.018237 40.018237 0 0 0-40.018238-40.018238h-261.452485a40.018237 40.018237 0 0 0-40.018237 40.018238v261.452485a40.018237 40.018237 0 0 0 40.018237 40.018237zM984.675412 0.013339h-261.452485a40.018237 40.018237 0 0 0-40.018237 40.018238 40.018237 40.018237 0 0 0 40.018237 40.018237h221.434247v221.434248a40.018237 40.018237 0 0 0 40.018238 40.018237 40.018237 40.018237 0 0 0 40.018237-40.018237v-261.452485a40.018237 40.018237 0 0 0-40.018237-40.018238zM301.564098 943.963525H80.036475v-221.434247a40.018237 40.018237 0 0 0-40.018238-40.018238 40.018237 40.018237 0 0 0-40.018237 40.018238v261.452485a40.018237 40.018237 0 0 0 40.018237 40.018237h261.452485a40.018237 40.018237 0 0 0 40.018238-40.018237 40.018237 40.018237 0 0 0-39.924862-40.018238zM984.675412 682.444343a40.018237 40.018237 0 0 0-40.018238 40.018238v221.434247h-221.434247a40.018237 40.018237 0 0 0-40.018237 40.018237 40.018237 40.018237 0 0 0 40.018237 40.018238h261.452485a40.018237 40.018237 0 0 0 40.018237-40.018238v-261.452484a40.018237 40.018237 0 0 0-40.018237-40.018238z" fill="#333333" p-id="2461"></path></svg>